<svg xmlns="http://www.w3.org/2000/svg" width="24" height="24" viewBox="0 0 256 256" fill="#f7df1e">
  <path d="M0 0h256v256H0z"/>
  <path d="M67.8 214l16.7-10c3.2 5.6 6.2 10.4 13.3 10.4 6.8 0 11.1-2.7 11.1-13V108h20.8v93c0 21.6-12.7 31.4-31.2 31.4-16.7 0-26.3-8.7-31.1-18.4zm97.2-2.1l16.7-9.7c4.4 7.2 10 12.5 20.1 12.5 8.5 0 13.9-4.2 13.9-10 0-7-5.5-9.5-14.9-13.5l-5.1-2.2c-14.8-6.3-24.6-14.2-24.6-30.9 0-15.4 11.7-27.2 30-27.2 13 0 22.3 4.5 29 16.3l-15.9 10.2c-3.5-6.3-7.3-8.8-13.1-8.8-6 0-9.9 3.8-9.9 8.8 0 6.2 3.8 8.7 12.6 12.5l5.1 2.2c17.3 7.4 27.1 14.9 27.1 31.9 0 18.3-14.4 28.4-33.7 28.4-18.9 0-31.2-9-37.2-20.8z" fill="#000"/>
</svg>
