<svg xmlns="http://www.w3.org/2000/svg" width="24" height="24" viewBox="0 0 24 24" fill="#0078d7">
  <path d="M12 2C7.03 2 3 3.79 3 6v12c0 2.21 4.03 4 9 4s9-1.79 9-4V6c0-2.21-4.03-4-9-4zm0 2c4.15 0 7 .97 7 2s-2.85 2-7 2-7-.97-7-2 2.85-2 7-2zm0 14c-4.15 0-7-.97-7-2v-1.32c1.61.86 4.11 1.32 7 1.32s5.39-.46 7-1.32V16c0 1.03-2.85 2-7 2zm0-4c-4.15 0-7-.97-7-2v-1.32c1.61.86 4.11 1.32 7 1.32s5.39-.46 7-1.32V12c0 1.03-2.85 2-7 2zm0-4c-4.15 0-7-.97-7-2V8c1.61.86 4.11 1.32 7 1.32s5.39-.46 7-1.32v1.32c0 1.03-2.85 2-7 2z"/>
</svg>

