<svg xmlns="http://www.w3.org/2000/svg" viewBox="0 0 256 272" width="24" height="24">
  <path fill="#8cc84b" d="M128 0L0 64v144l128 64 128-64V64L128 0z"/>
  <path fill="#fff" d="M186.4 113.3c-3.7-12.5-11.2-21.7-23.2-27.5-2.5-1.3-5.2-2.3-7.8-3.4-6.7-2.9-14-5.3-20.4-8.7-2.8-1.5-6.5-4.3-5.4-7.8.8-2.9 4.4-4.8 7.4-4.8 6.2-.1 10.6 2.4 12.3 8.7l21.4-4.3c-1.9-13.3-12.4-21.3-24.3-24.2V32h-16v9.6c-11.5 2.5-20.2 11-21.5 23.1-1.4 13.5 7.6 22 19 27.6 5.6 2.6 11.5 4.5 17.2 6.9 2.8 1.2 6 2.6 8.6 4.2 3.6 2.1 5.6 5.5 5.5 9.6-.2 4.5-2.6 8.1-7.1 9.6-6.3 2.1-11.6-.1-14.8-5.7l-22.1 4.7c2.1 14.5 10.5 23.3 24.2 27v8.9h16v-8.5c1.4-.3 2.8-.5 4.1-.9 16.2-4.7 25.8-19.4 21.5-36.8z"/>
</svg>
